<?xml version="1.0" encoding="UTF-8" standalone="no"?><!-- Created with Inkscape (http://www.inkscape.org/) -->

<svg height="512" id="svg1" version="1.1" viewBox="0 0 512 512" width="512" xmlns="http://www.w3.org/2000/svg" xml:space="preserve"><defs
     id="defs1" />
    <path
        style="fill:#ffffff;stroke-width:0.275"
        d="M 267,251.6 V 212 q 0,-4.675 -3.1625,-7.8375 Q 260.675,201 256,201 q -4.675,0 -7.8375,3.1625 Q 245,207.325 245,212 v 43.725 q 0,2.2 0.825,4.2625 0.825,2.0625 2.475,3.7125 l 36.3,36.3 q 3.025,3.025 7.7,3.025 4.675,0 7.7,-3.025 3.025,-3.025 3.025,-7.7 0,-4.675 -3.025,-7.7 z M 256,366 q -22.825,0 -42.9,-8.6625 Q 193.025,348.675 178.175,333.825 163.325,318.975 154.6625,298.9 146,278.825 146,256 q 0,-22.825 8.6625,-42.9 8.6625,-20.075 23.5125,-34.925 14.85,-14.85 34.925,-23.5125 Q 233.175,146 256,146 q 22.825,0 42.9,8.6625 20.075,8.6625 34.925,23.5125 14.85,14.85 23.5125,34.925 Q 366,233.175 366,256 q 0,22.825 -8.6625,42.9 -8.6625,20.075 -23.5125,34.925 -14.85,14.85 -34.925,23.5125 Q 278.825,366 256,366 Z m 0,-110 z m 0,88 q 36.575,0 62.2875,-25.7125 Q 344,292.575 344,256 344,219.425 318.2875,193.7125 292.575,168 256,168 219.425,168 193.7125,193.7125 168,219.425 168,256 q 0,36.575 25.7125,62.2875 Q 219.425,344 256,344 Z" id="path1" /></svg>
